# This file uses centimeters as units for non-parametric coordinates.

mtllib Mask.mtl
g default
v -3.058465 1.702761 -3.048314
v -3.058465 2.148480 -2.534279
v -3.058465 2.206932 -1.856428
v -3.058465 0.062271 -2.354383
v -3.058465 0.413414 -2.937133
v -3.058465 1.040025 -3.202191
v -3.121371 1.702761 -3.048314
v -3.121371 2.148480 -2.534279
v -3.121371 2.206932 -1.856428
v -3.121371 0.062271 -2.354383
v -3.121371 0.413414 -2.937133
v -3.121371 1.040025 -3.202191
v -3.121371 1.783927 -3.183015
v -3.121371 2.293320 -2.595546
v -3.121371 2.360122 -1.820860
v -3.121371 -0.090919 -2.389952
v -3.121371 0.310387 -3.055951
v -3.121371 1.026514 -3.358875
v -3.058465 1.783927 -3.183015
v -3.058465 2.293320 -2.595546
v -3.058465 2.360122 -1.820860
v -3.058465 -0.090919 -2.389952
v -3.058465 0.310387 -3.055951
v -3.058465 1.026514 -3.358875
v -2.815850 1.609460 -0.028240
v -2.888918 1.644921 -0.019560
v -3.454179 -0.360597 -0.131070
v -3.373942 -0.358910 -0.153668
v -2.792670 1.819007 -0.108038
v -3.455957 -0.497020 -0.205805
v -2.716004 1.789091 -0.118829
v -3.375600 -0.489444 -0.225150
v 3.115612 1.702761 -3.048314
v 3.115612 2.148480 -2.534279
v 3.115612 2.206932 -1.856428
v 3.115612 0.062271 -2.354383
v 3.115612 0.413414 -2.937133
v 3.115612 1.040025 -3.202191
v 3.178518 1.702761 -3.048314
v 3.178518 2.148480 -2.534279
v 3.178518 2.206932 -1.856428
v 3.178518 0.062271 -2.354383
v 3.178518 0.413414 -2.937133
v 3.178518 1.040025 -3.202191
v 3.178518 1.783927 -3.183015
v 3.178518 2.293320 -2.595546
v 3.178518 2.360122 -1.820860
v 3.178518 -0.090919 -2.389952
v 3.178518 0.310387 -3.055951
v 3.178518 1.026514 -3.358875
v 3.115612 1.783927 -3.183015
v 3.115612 2.293320 -2.595546
v 3.115612 2.360122 -1.820860
v 3.115612 -0.090919 -2.389952
v 3.115612 0.310387 -3.055951
v 3.115612 1.026514 -3.358875
v 2.946065 1.644921 -0.019560
v 2.872997 1.609460 -0.028240
v 3.431089 -0.358910 -0.153668
v 3.511326 -0.360597 -0.131070
v 2.849818 1.819007 -0.108038
v 3.513104 -0.497020 -0.205805
v 2.773151 1.789091 -0.118829
v 3.432747 -0.489444 -0.225150
v 0.028574 -2.816579 2.785839
v 1.755286 -2.247540 2.552516
v 2.970670 -1.319425 1.400904
v 0.028574 -2.095716 3.946120
v 1.698583 -1.701442 3.276574
v 2.913419 -0.933309 1.758295
v 0.028574 -0.958442 4.690784
v 1.586531 -0.726280 3.949171
v 2.773597 -0.235117 2.183561
v 0.028574 0.516544 5.054388
v 1.474388 0.518105 4.307821
v 2.649888 0.605868 2.432956
v 1.328544 1.914400 4.234200
v 2.527061 1.496674 2.440002
v 0.028574 3.777859 3.352565
v 1.143729 3.227352 3.388908
v 2.404262 2.171067 2.222221
v 3.428851 -0.182697 -0.057171
v 3.367358 0.252727 0.225453
v 3.238892 0.777067 0.280114
v 3.030843 1.325481 0.114974
v 0.028574 -2.889835 2.836279
v 0.028574 -2.154774 4.017244
v 1.806855 -2.301209 2.596432
v 1.758736 -1.751704 3.319623
v 3.047144 -1.341842 1.430566
v 2.992798 -0.956438 1.782176
v 0.028574 -0.992913 4.777839
v 1.646012 -0.753338 4.007474
v 2.853734 -0.246158 2.211284
v 0.028574 0.509081 5.147951
v 1.531602 0.517398 4.373731
v 2.730465 0.607874 2.461478
v 0.028574 2.256407 4.806269
v 1.379882 1.946219 4.297844
v 2.605513 1.515727 2.468225
v 0.028574 3.833156 3.421542
v 1.195131 3.270762 3.443228
v 2.478120 2.202719 2.248147
v 3.509060 -0.186698 -0.035805
v 3.446896 0.257139 0.249260
v 3.317861 0.791787 0.301854
v 3.108771 1.350632 0.130009
v 2.730761 1.832984 0.150185
v 2.805778 1.864470 0.171130
v 3.469417 -0.576228 -0.052384
v 3.393090 -0.560676 -0.085596
v 0.028574 1.849129 4.792480
v 0.028574 2.224214 4.718738
v 0.028574 3.738022 3.387595
v -1.698139 -2.247540 2.552516
v -2.913523 -1.319425 1.400904
v -1.641436 -1.701442 3.276574
v -2.856272 -0.933309 1.758295
v -1.529384 -0.726280 3.949171
v -2.716450 -0.235117 2.183561
v -1.417241 0.518105 4.307821
v -2.592741 0.605868 2.432956
v -1.271397 1.914400 4.234200
v -2.469914 1.496674 2.440002
v -1.086582 3.227352 3.388908
v -2.347115 2.171067 2.222221
v -3.371704 -0.182697 -0.057171
v -3.310211 0.252727 0.225453
v -3.181745 0.777067 0.280114
v -2.973696 1.325481 0.114974
v -1.749708 -2.301209 2.596432
v -1.701589 -1.751704 3.319623
v -2.989997 -1.341842 1.430566
v -2.935651 -0.956438 1.782176
v -1.588865 -0.753338 4.007474
v -2.796587 -0.246158 2.211284
v -1.474455 0.517398 4.373731
v -2.673318 0.607874 2.461478
v -1.322735 1.946219 4.297844
v -2.548366 1.515727 2.468225
v -1.137984 3.270762 3.443228
v -2.420973 2.202719 2.248147
v -3.451913 -0.186698 -0.035805
v -3.389749 0.257139 0.249260
v -3.260714 0.791787 0.301854
v -3.051624 1.350632 0.130009
v -2.673614 1.832984 0.150185
v -2.748631 1.864470 0.171130
v -3.412270 -0.576228 -0.052384
v -3.335943 -0.560676 -0.085596
vt 0.963933 0.329638
vt 0.974527 0.295133
vt 0.977797 0.295056
vt 0.966728 0.331361
vt 0.937103 0.351688
vt 0.938420 0.354656
vt 0.901051 0.353868
vt 0.900344 0.357122
vt 0.963039 0.261510
vt 0.935129 0.240924
vt 0.936608 0.237938
vt 0.965697 0.259580
vt 0.011087 0.508311
vt 0.016556 0.467234
vt 0.024121 0.470782
vt 0.019316 0.506823
vt 0.030672 0.544888
vt 0.036503 0.538897
vt 0.067773 0.563563
vt 0.069037 0.555291
vt 0.044526 0.436132
vt 0.085032 0.427283
vt 0.084018 0.435597
vt 0.048626 0.443420
vt 0.973792 0.335799
vt 0.986131 0.294833
vt 0.989437 0.294722
vt 0.976600 0.337563
vt 0.941814 0.362236
vt 0.943187 0.365247
vt 0.898828 0.365359
vt 0.898855 0.368754
vt 0.972392 0.254597
vt 0.939041 0.229980
vt 0.939974 0.226855
vt 0.975035 0.252606
vt 0.797833 0.324285
vt 0.800895 0.321085
vt 0.819709 0.213070
vt 0.820517 0.209398
vt 0.172208 0.562379
vt 0.165051 0.571513
vt 0.202587 0.444946
vt 0.203615 0.453084
vt 0.801096 0.340345
vt 0.801411 0.335883
vt 0.824567 0.202387
vt 0.824588 0.198172
vt 0.028197 0.094182
vt 0.024873 0.094515
vt 0.029529 0.057689
vt 0.032451 0.059145
vt 0.041603 0.125445
vt 0.039094 0.127502
vt 0.072236 0.143227
vt 0.071384 0.146436
vt 0.056294 0.034217
vt 0.054723 0.031361
vt 0.090783 0.024670
vt 0.090908 0.028010
vt 0.966252 0.766308
vt 0.959975 0.760787
vt 0.974636 0.727308
vt 0.982963 0.728112
vt 0.930467 0.787658
vt 0.928512 0.779534
vt 0.888833 0.785215
vt 0.891936 0.777441
vt 0.974283 0.687453
vt 0.967067 0.691686
vt 0.940234 0.667432
vt 0.943577 0.659757
vt 0.016583 0.095415
vt 0.013277 0.095766
vt 0.019133 0.052462
vt 0.022082 0.053961
vt 0.032648 0.132729
vt 0.030058 0.134789
vt 0.068967 0.154448
vt 0.067395 0.157462
vt 0.050725 0.024043
vt 0.049139 0.021140
vt 0.092211 0.013193
vt 0.091815 0.016419
vt 0.175209 0.158264
vt 0.176431 0.162470
vt 0.210586 0.049327
vt 0.209776 0.052847
vt 0.800565 0.743579
vt 0.799027 0.732136
vt 0.827622 0.620781
vt 0.832619 0.614296
vt 0.167827 0.171199
vt 0.166015 0.175301
vt 0.211613 0.037432
vt 0.209843 0.041242
vt 0.530982 0.480794
vt 0.549430 0.412051
vt 0.654484 0.477310
vt 0.627009 0.513587
vt 0.747055 0.551599
vt 0.727456 0.570754
vt 0.513837 0.544552
vt 0.598043 0.568141
vt 0.701406 0.607984
vt 0.495286 0.613313
vt 0.572877 0.630470
vt 0.680867 0.653722
vt 0.473963 0.692092
vt 0.548290 0.699226
vt 0.667099 0.703700
vt 0.533317 0.779210
vt 0.448033 0.787654
vt 0.663714 0.743917
vt 0.824475 0.608233
vt 0.821315 0.629224
vt 0.802751 0.650486
vt 0.794950 0.679645
vt 0.795255 0.712787
vt 0.784758 0.743432
vt 0.528053 0.084560
vt 0.432976 0.064923
vt 0.427947 0.019465
vt 0.545682 0.017700
vt 0.321469 0.061970
vt 0.313759 0.035036
vt 0.511832 0.146345
vt 0.430326 0.125560
vt 0.324984 0.107517
vt 0.494394 0.212823
vt 0.420529 0.190910
vt 0.319019 0.157748
vt 0.409110 0.260704
vt 0.304920 0.207890
vt 0.382491 0.337186
vt 0.473986 0.290488
vt 0.450571 0.379023
vt 0.449848 0.381747
vt 0.286504 0.243593
vt 0.214173 0.060956
vt 0.219110 0.089979
vt 0.210889 0.119875
vt 0.190769 0.147776
vt 0.167827 0.171199
vt 0.176431 0.162470
vt 0.181383 0.179221
vt 0.427539 0.015046
vt 0.546906 0.013073
vt 0.313274 0.030672
vt 0.448622 0.386366
vt 0.379716 0.340734
vt 0.283990 0.247081
vt 0.218890 0.041023
vt 0.219727 0.036585
vt 0.210850 0.062676
vt 0.215203 0.089793
vt 0.207637 0.117556
vt 0.188016 0.144292
vt 0.179727 0.183361
vt 0.166015 0.175301
vt 0.175209 0.158264
vt 0.478485 0.273399
vt 0.431501 0.460776
vt 0.425834 0.415586
vt 0.315903 0.459594
vt 0.308374 0.433227
vt 0.429218 0.522555
vt 0.319982 0.504911
vt 0.419613 0.589129
vt 0.314750 0.554927
vt 0.406146 0.660911
vt 0.301252 0.605146
vt 0.378635 0.737457
vt 0.283642 0.641439
vt 0.212603 0.443775
vt 0.211175 0.490996
vt 0.204793 0.463568
vt 0.204334 0.519955
vt 0.186036 0.547855
vt 0.178790 0.579351
vt 0.647046 0.077360
vt 0.620345 0.114436
vt 0.738205 0.146848
vt 0.718536 0.166621
vt 0.592942 0.168521
vt 0.693393 0.204620
vt 0.569461 0.230234
vt 0.674178 0.251327
vt 0.545110 0.296606
vt 0.662013 0.301945
vt 0.530501 0.376272
vt 0.660608 0.342045
vt 0.812120 0.217602
vt 0.794262 0.240408
vt 0.787418 0.270501
vt 0.791940 0.304608
vt 0.785236 0.336560
vt 0.649580 0.073718
vt 0.740747 0.143270
vt 0.531155 0.380729
vt 0.661083 0.346322
vt 0.818434 0.193641
vt 0.817069 0.197959
vt 0.814269 0.220388
vt 0.797767 0.242090
vt 0.791380 0.270046
vt 0.796087 0.302971
vt 0.784652 0.340985
vn -0.954857 -0.153319 0.254444
vn -0.954857 0.025521 0.295967
vn 0.954857 0.025522 0.295967
vn 0.954857 -0.153319 0.254444
vn -0.954857 -0.273596 0.115731
vn 0.954857 -0.273596 0.115731
vn -0.985563 -0.134965 0.102226
vn 0.786584 -0.570042 -0.237357
vn -0.954857 0.194613 0.224441
vn -0.903682 0.428073 0.010648
vn 0.931598 0.311709 0.186984
vn 0.954857 0.194613 0.224441
vn -0.882353 0.242874 -0.403069
vn -0.882354 -0.040429 -0.468847
vn -0.882353 0.433408 -0.183332
vn -0.778199 0.585559 0.226996
vn -0.882354 -0.308290 -0.355541
vn -0.887867 -0.404950 -0.218423
vn 0.882353 0.242874 -0.403069
vn 0.882354 -0.040429 -0.468847
vn 0.882353 0.433408 -0.183332
vn 0.965987 0.238266 -0.100492
vn 0.882354 -0.308290 -0.355541
vn 0.900995 -0.433556 -0.015434
vn 0.866216 -0.459558 -0.196155
vn -0.966633 0.239136 0.091841
vn -0.987535 0.107066 0.115372
vn 0.954886 0.285931 -0.080228
vn -0.743888 0.609605 0.273885
vn -0.954128 -0.235386 -0.185023
vn 0.982067 -0.035072 -0.185244
vn 0.879195 -0.475988 0.021264
vn 0.954857 -0.153317 0.254444
vn -0.954857 -0.153318 0.254444
vn -0.954857 0.025522 0.295967
vn 0.954857 0.025521 0.295967
vn 0.954857 -0.273595 0.115732
vn -0.954857 -0.273595 0.115732
vn 0.985563 -0.134965 0.102225
vn -0.786585 -0.570041 -0.237357
vn 0.954857 0.194611 0.224442
vn -0.954857 0.194613 0.224441
vn -0.931598 0.311709 0.186984
vn 0.903682 0.428073 0.010648
vn 0.882354 0.242874 -0.403069
vn 0.882354 -0.040429 -0.468847
vn 0.882353 0.433408 -0.183332
vn 0.778199 0.585558 0.226996
vn 0.882353 -0.308290 -0.355541
vn 0.887867 -0.404950 -0.218423
vn -0.882354 0.242873 -0.403069
vn -0.882354 -0.040429 -0.468847
vn -0.882354 0.433407 -0.183332
vn -0.965987 0.238266 -0.100492
vn -0.882354 -0.308288 -0.355542
vn -0.900994 -0.433556 -0.015434
vn 0.966633 0.239136 0.091841
vn -0.866216 -0.459558 -0.196155
vn -0.954886 0.285931 -0.080228
vn 0.987535 0.107066 0.115372
vn 0.743888 0.609604 0.273885
vn 0.954128 -0.235386 -0.185023
vn -0.982067 -0.035072 -0.185244
vn -0.879194 -0.475989 0.021264
vn -0.000000 -0.679394 0.733774
vn -0.000000 -0.858180 0.513349
vn 0.556850 -0.693332 0.457394
vn 0.602683 -0.512932 0.611289
vn 0.859591 -0.413324 0.300445
vn 0.882637 -0.214990 0.418008
vn -0.000000 -0.386744 0.922187
vn 0.646260 -0.264831 0.715691
vn 0.890743 -0.071463 0.448854
vn 0.000000 -0.040648 0.999174
vn 0.656014 -0.010357 0.754678
vn 0.893278 0.080823 0.442180
vn 0.000000 0.408803 0.912623
vn 0.617977 0.309261 0.722815
vn 0.876419 0.243632 0.415371
vn 0.550051 0.554269 0.624683
vn 0.000000 0.660877 0.750494
vn 0.838518 0.415905 0.352009
vn 0.958058 -0.244522 0.149447
vn 0.971264 0.000224 0.238006
vn 0.962755 0.060168 0.263595
vn 0.954910 0.182361 0.234292
vn 0.936181 0.304475 0.175670
vn 0.909187 0.404214 0.099949
vn -0.000000 0.680748 -0.732518
vn -0.604049 0.511823 -0.610870
vn -0.563168 0.577270 -0.591271
vn 0.000000 0.763529 -0.645774
vn -0.882694 0.213917 -0.418438
vn -0.866903 0.159996 -0.472102
vn -0.000000 0.386745 -0.922187
vn -0.648218 0.263266 -0.714496
vn -0.891067 0.069861 -0.448463
vn -0.000000 0.040586 -0.999176
vn -0.658152 0.010639 -0.752810
vn -0.893679 -0.081600 -0.441225
vn -0.620723 -0.308478 -0.720795
vn -0.876824 -0.244396 -0.414065
vn -0.536814 -0.475235 -0.697124
vn -0.000000 -0.411047 -0.911614
vn -0.000000 -0.625570 -0.780168
vn 0.000000 -0.571221 -0.820796
vn -0.863926 -0.275852 -0.421353
vn -0.950180 0.045058 -0.308429
vn -0.949093 -0.041820 -0.312207
vn -0.940554 -0.184359 -0.285255
vn -0.913649 -0.321856 -0.248303
vn -0.972202 -0.182816 -0.146296
vn -0.953298 -0.047809 -0.298224
vn 0.000000 -0.151947 -0.988389
vn -0.602683 -0.512932 0.611289
vn -0.556850 -0.693332 0.457394
vn -0.882637 -0.214990 0.418008
vn -0.859591 -0.413324 0.300445
vn -0.646260 -0.264831 0.715690
vn -0.890743 -0.071463 0.448854
vn -0.656014 -0.010357 0.754678
vn -0.893278 0.080823 0.442180
vn -0.617977 0.309261 0.722815
vn -0.876419 0.243632 0.415371
vn -0.550051 0.554269 0.624683
vn -0.838518 0.415905 0.352009
vn -0.958058 -0.244522 0.149447
vn -0.962755 0.060168 0.263595
vn -0.971264 0.000224 0.238006
vn -0.954909 0.182361 0.234292
vn -0.936181 0.304475 0.175670
vn -0.909187 0.404214 0.099949
vn 0.563168 0.577270 -0.591271
vn 0.604049 0.511823 -0.610870
vn 0.866903 0.159995 -0.472102
vn 0.882694 0.213917 -0.418438
vn 0.648218 0.263266 -0.714496
vn 0.891067 0.069861 -0.448463
vn 0.658152 0.010639 -0.752810
vn 0.893679 -0.081600 -0.441225
vn 0.620723 -0.308478 -0.720795
vn 0.876824 -0.244396 -0.414065
vn 0.536814 -0.475235 -0.697124
vn 0.863926 -0.275852 -0.421353
vn 0.950180 0.045058 -0.308429
vn 0.949093 -0.041820 -0.312207
vn 0.940554 -0.184359 -0.285255
vn 0.913649 -0.321856 -0.248303
vn 0.972202 -0.182816 -0.146296
vn 0.953298 -0.047809 -0.298224
s 1
g polySurface3
usemtl lambert4SG
f 7/1/1 12/2/2 6/3/3 1/4/4
f 8/5/5 7/1/1 1/4/4 2/6/6
f 9/7/7 8/5/5 2/6/6 3/8/8
f 11/9/9 10/10/10 4/11/11 5/12/12
f 12/2/2 11/9/9 5/12/12 6/3/3
f 13/13/13 18/14/14 12/15/2 7/16/1
f 14/17/15 13/13/13 7/16/1 8/18/5
f 15/19/16 14/17/15 8/18/5 9/20/7
f 17/21/17 16/22/18 10/23/10 11/24/9
f 18/14/14 17/21/17 11/24/9 12/15/2
f 19/25/19 24/26/20 18/27/14 13/28/13
f 20/29/21 19/25/19 13/28/13 14/30/15
f 21/31/22 20/29/21 14/30/15 15/32/16
f 23/33/23 22/34/24 16/35/18 17/36/17
f 24/26/20 23/33/23 17/36/17 18/27/14
f 6/3/3 24/26/20 19/25/19 1/4/4
f 1/4/4 19/25/19 20/29/21 2/6/6
f 2/6/6 20/29/21 21/31/22 3/8/8
f 4/11/11 22/34/24 23/33/23 5/12/12
f 5/12/12 23/33/23 24/26/20 6/3/3
f 3/8/8 25/37/25 26/38/26 9/7/7
f 10/10/10 27/39/27 28/40/28 4/11/11
f 9/20/7 26/41/26 29/42/29 15/19/16
f 16/22/18 30/43/30 27/44/27 10/23/10
f 15/32/16 29/45/29 31/46/31 21/31/22
f 22/34/24 32/47/32 30/48/30 16/35/18
f 21/31/22 31/46/31 25/37/25 3/8/8
f 4/11/11 28/40/28 32/47/32 22/34/24
f 39/49/33 33/50/34 38/51/35 44/52/36
f 40/53/37 34/54/38 33/50/34 39/49/33
f 41/55/39 35/56/40 34/54/38 40/53/37
f 43/57/41 37/58/42 36/59/43 42/60/44
f 44/52/36 38/51/35 37/58/42 43/57/41
f 45/61/45 39/62/33 44/63/36 50/64/46
f 46/65/47 40/66/37 39/62/33 45/61/45
f 47/67/48 41/68/39 40/66/37 46/65/47
f 49/69/49 43/70/41 42/71/44 48/72/50
f 50/64/46 44/63/36 43/70/41 49/69/49
f 51/73/51 45/74/45 50/75/46 56/76/52
f 52/77/53 46/78/47 45/74/45 51/73/51
f 53/79/54 47/80/48 46/78/47 52/77/53
f 55/81/55 49/82/49 48/83/50 54/84/56
f 56/76/52 50/75/46 49/82/49 55/81/55
f 38/51/35 33/50/34 51/73/51 56/76/52
f 33/50/34 34/54/38 52/77/53 51/73/51
f 34/54/38 35/56/40 53/79/54 52/77/53
f 36/59/43 37/58/42 55/81/55 54/84/56
f 37/58/42 38/51/35 56/76/52 55/81/55
f 35/56/40 41/55/39 57/85/57 58/86/58
f 42/60/44 36/59/43 59/87/59 60/88/60
f 41/68/39 47/67/48 61/89/61 57/90/57
f 48/72/50 42/71/44 60/91/60 62/92/62
f 47/80/48 53/79/54 63/93/63 61/94/61
f 54/84/56 48/83/50 62/95/62 64/96/64
f 53/79/54 35/56/40 58/86/58 63/93/63
f 36/59/43 54/84/56 64/96/64 59/87/59
f 87/97/65 86/98/66 88/99/67 89/100/68
f 89/100/68 88/99/67 90/101/69 91/102/70
f 92/103/71 87/97/65 89/100/68 93/104/72
f 93/104/72 89/100/68 91/102/70 94/105/73
f 95/106/74 92/103/71 93/104/72 96/107/75
f 96/107/75 93/104/72 94/105/73 97/108/76
f 98/109/77 95/106/74 96/107/75 99/110/78
f 99/110/78 96/107/75 97/108/76 100/111/79
f 102/112/80 101/113/81 98/109/77 99/110/78
f 103/114/82 102/112/80 99/110/78 100/111/79
f 91/102/70 90/101/69 110/115/83 60/91/60
f 94/105/73 91/102/70 104/116/84 105/117/85
f 97/108/76 94/105/73 105/117/85 106/118/86
f 100/111/79 97/108/76 106/118/86 107/119/87
f 61/89/61 109/120/88 57/90/57
f 68/121/89 69/122/90 66/123/91 65/124/92
f 69/122/90 70/125/93 67/126/94 66/123/91
f 71/127/95 72/128/96 69/122/90 68/121/89
f 72/128/96 73/129/97 70/125/93 69/122/90
f 74/130/98 75/131/99 72/128/96 71/127/95
f 75/131/99 76/132/100 73/129/97 72/128/96
f 77/133/101 78/134/102 76/132/100 75/131/99
f 80/135/103 77/133/101 113/136/104 114/137/105 79/138/106
f 81/139/107 78/134/102 77/133/101 80/135/103
f 70/125/93 82/140/108 59/87/59
f 73/129/97 83/141/109 82/140/108 70/125/93
f 76/132/100 84/142/110 83/141/109 73/129/97
f 78/134/102 85/143/111 84/142/110 76/132/100
f 63/144/63 58/145/58 108/146/112
f 65/124/92 66/123/91 88/147/67 86/148/66
f 66/123/91 67/126/94 90/149/69 88/147/67
f 80/135/103 79/138/106 101/150/81 102/151/80
f 81/139/107 80/135/103 102/151/80 103/152/82
f 67/126/94 111/153/113 110/154/83 90/149/69
f 60/88/60 59/87/59 82/140/108 104/155/84
f 82/140/108 83/141/109 105/156/85 104/155/84
f 83/141/109 84/142/110 106/157/86 105/156/85
f 84/142/110 85/143/111 107/158/87 106/157/86
f 63/144/63 108/146/112 109/159/88 61/160/61
f 108/146/112 58/145/58 78/134/102 81/139/107
f 109/159/88 108/146/112 81/139/107 103/152/82
f 57/90/57 100/111/79 107/119/87
f 85/143/111 58/145/58 57/161/57 107/158/87
f 60/91/60 110/115/83 62/92/62
f 111/153/113 59/87/59 64/96/64
f 110/154/83 111/153/113 64/96/64 62/95/62
f 112/162/114 113/136/104 77/133/101 75/131/99 74/130/98
f 70/125/93 59/87/59 111/153/113 67/126/94
f 78/134/102 58/145/58 85/143/111
f 57/90/57 109/120/88 103/114/82 100/111/79
f 91/102/70 60/91/60 104/116/84
f 87/97/65 132/163/115 131/164/116 86/98/66
f 132/163/115 134/165/117 133/166/118 131/164/116
f 92/103/71 135/167/119 132/163/115 87/97/65
f 135/167/119 136/168/120 134/165/117 132/163/115
f 95/106/74 137/169/121 135/167/119 92/103/71
f 137/169/121 138/170/122 136/168/120 135/167/119
f 98/109/77 139/171/123 137/169/121 95/106/74
f 139/171/123 140/172/124 138/170/122 137/169/121
f 141/173/125 139/171/123 98/109/77 101/113/81
f 142/174/126 140/172/124 139/171/123 141/173/125
f 134/165/117 27/44/27 149/175/127 133/166/118
f 136/168/120 144/176/128 143/177/129 134/165/117
f 138/170/122 145/178/130 144/176/128 136/168/120
f 140/172/124 146/179/131 145/178/130 138/170/122
f 29/42/29 26/41/26 148/180/132
f 68/121/89 65/124/92 115/181/133 117/182/134
f 117/182/134 115/181/133 116/183/135 118/184/136
f 71/127/95 68/121/89 117/182/134 119/185/137
f 119/185/137 117/182/134 118/184/136 120/186/138
f 74/130/98 71/127/95 119/185/137 121/187/139
f 121/187/139 119/185/137 120/186/138 122/188/140
f 123/189/141 121/187/139 122/188/140 124/190/142
f 125/191/143 79/138/106 114/137/105 113/136/104 123/189/141
f 126/192/144 125/191/143 123/189/141 124/190/142
f 118/184/136 28/40/28 127/193/145
f 120/186/138 118/184/136 127/193/145 128/194/146
f 122/188/140 120/186/138 128/194/146 129/195/147
f 124/190/142 122/188/140 129/195/147 130/196/148
f 31/46/31 147/197/149 25/37/25
f 65/124/92 86/148/66 131/198/116 115/181/133
f 115/181/133 131/198/116 133/199/118 116/183/135
f 125/191/143 141/200/125 101/150/81 79/138/106
f 126/192/144 142/201/126 141/200/125 125/191/143
f 116/183/135 133/199/118 149/202/127 150/203/150
f 27/39/27 143/204/129 127/193/145 28/40/28
f 127/193/145 143/204/129 144/205/128 128/194/146
f 128/194/146 144/205/128 145/206/130 129/195/147
f 129/195/147 145/206/130 146/207/131 130/196/148
f 31/46/31 29/45/29 148/208/132 147/197/149
f 147/197/149 126/192/144 124/190/142 25/37/25
f 148/208/132 142/201/126 126/192/144 147/197/149
f 26/41/26 146/179/131 140/172/124
f 130/196/148 146/207/131 26/38/26 25/37/25
f 27/44/27 30/43/30 149/175/127
f 150/203/150 32/47/32 28/40/28
f 149/202/127 30/48/30 32/47/32 150/203/150
f 112/162/114 74/130/98 121/187/139 123/189/141 113/136/104
f 118/184/136 116/183/135 150/203/150 28/40/28
f 124/190/142 130/196/148 25/37/25
f 26/41/26 140/172/124 142/174/126 148/180/132
f 134/165/117 143/177/129 27/44/27
