# This file uses centimeters as units for non-parametric coordinates.

mtllib nachos.mtl
g default
v -5.502607 0.114217 3.398317
v -5.438053 0.096473 3.384809
v -5.519861 0.153691 3.464082
v -5.445936 0.172420 3.422544
v -5.507381 0.188530 3.392838
v -5.449810 0.206049 3.397849
v -5.533361 0.134399 3.326682
v -5.476252 0.145318 3.356154
v -5.321620 0.010253 4.066882
v -5.329884 -0.000946 4.229354
v -5.385243 0.085923 4.004030
v -5.291979 0.069272 4.193405
v -5.206803 0.041601 4.050005
v -5.198882 0.063398 4.187421
v -5.157442 -0.048179 4.008913
v -5.203766 -0.007926 4.139379
v -4.612538 0.149535 3.363530
v -4.621410 0.094755 3.409265
v -4.634943 0.215674 3.373919
v -4.603020 0.153920 3.432767
v -4.564012 0.180481 3.380599
v -4.564649 0.155788 3.434680
v -4.544471 0.134253 3.329814
v -4.566782 0.121575 3.386378
v -6.188344 0.160162 3.566468
v -6.233789 0.093297 3.471871
v -5.571343 0.160162 3.701081
v -5.473248 0.093297 3.637804
v -6.004016 0.211318 4.226824
v -6.040864 0.068732 1.732610
v -6.138957 0.075061 1.906158
v -6.096191 0.053707 2.102901
v -6.163835 0.014618 2.080756
v -6.206939 0.034884 1.884008
v -6.107970 0.028890 1.710462
v -4.173599 0.103942 2.021634
v -4.220153 0.102246 1.842810
v -4.350715 0.084091 1.711903
v -4.321404 0.039401 1.668682
v -4.190109 0.056456 1.799591
v -4.143323 0.057833 1.978416
v -4.166036 0.126516 2.483545
v -4.127427 0.072940 2.422460
v -5.834938 -0.034548 2.678134
v -5.713614 0.025217 2.779881
v -5.018029 -0.121417 3.204036
v -4.357773 0.172571 5.281462
v -4.723417 0.172571 5.472102
v -4.576283 0.141174 5.535240
v -4.416555 0.141174 5.451963
v -4.336426 0.124694 5.334423
v -4.702069 0.124694 5.525060
v -4.554936 0.093297 5.588198
v -4.395208 0.093297 5.504922
v -4.445114 0.093297 3.671786
v -4.488023 0.141174 3.692316
v -5.347123 0.141174 4.669742
v -5.367347 0.093297 4.721038
v -6.188344 0.026433 3.566468
v -5.571343 0.026433 3.701081
v -6.004016 0.077588 4.226824
v -6.041980 -0.057557 1.732610
v -6.140499 -0.050427 1.906158
v -6.097977 -0.071014 2.102901
v -4.172643 -0.022591 2.021634
v -4.219440 -0.024901 1.842810
v -4.350299 -0.043759 1.711903
v -4.164871 0.000610 2.483545
v -5.714605 -0.100051 2.779881
v -5.018029 -0.250803 3.204036
v -4.357773 0.076817 5.281462
v -4.723417 0.076817 5.472102
v -4.576283 0.045421 5.535240
v -4.416555 0.045421 5.451963
v -4.488023 0.045421 3.692316
v -5.347123 0.045421 4.669742
v -4.799933 -0.078863 1.663988
v -4.799971 -0.143225 1.625112
v -4.668820 -0.048273 2.895167
v -4.791951 -0.206881 1.663988
v -4.661255 -0.175698 2.888721
v -5.379234 -0.096391 1.663988
v -5.252154 -0.091869 3.054977
v -5.381686 -0.224879 1.663988
v -5.254703 -0.220443 3.053394
v -5.383195 -0.160587 1.634202
v -5.704329 -0.012458 1.663988
v -5.625557 0.027564 2.833626
v -5.712856 -0.138859 1.663988
v -5.634540 -0.098582 2.828592
v -5.710485 -0.075516 1.638996
v -5.131048 -0.186110 1.630269
v -5.129673 -0.121417 1.663988
v -5.127466 -0.250803 1.663988
v -4.567273 -0.078928 1.621690
v -4.424614 0.044310 2.698068
v -4.412756 -0.081160 2.688722
v -4.567969 -0.014571 1.663988
v -4.555525 -0.140805 1.663988
v -5.165194 0.059668 4.462754
v -4.801405 0.059668 4.048861
v -4.796516 0.005672 4.053117
v -5.158762 0.006701 4.468361
v -4.801405 -0.036086 4.048861
v -5.165194 -0.036086 4.462754
vt 0.831553 0.117797
vt 0.825859 0.109202
vt 0.835412 0.091013
vt 0.845749 0.104628
vt 0.838931 0.042202
vt 0.831289 0.061638
vt 0.809180 0.067029
vt 0.819643 0.048533
vt 0.888063 0.243136
vt 0.882841 0.214295
vt 0.902132 0.175736
vt 0.913649 0.194015
vt 0.961231 0.245406
vt 0.937550 0.232534
vt 0.937677 0.194873
vt 0.951973 0.209729
vt 0.897526 0.115283
vt 0.909908 0.101152
vt 0.923996 0.110451
vt 0.917918 0.119661
vt 0.945331 0.085672
vt 0.943570 0.102316
vt 0.938703 0.110778
vt 0.929487 0.096210
vt 0.528379 0.557202
vt 0.535399 0.534705
vt 0.573100 0.570789
vt 0.562402 0.591977
vt 0.480961 0.543837
vt 0.486021 0.520506
vt 0.170662 0.031712
vt 0.128305 0.056513
vt 0.039038 0.121689
vt 0.013747 0.142767
vt 0.041058 0.142208
vt 0.049357 0.231660
vt 0.594642 0.779262
vt 0.057831 0.317486
vt 0.560153 0.860798
vt 0.075296 0.433719
vt 0.516595 0.982150
vt 0.503505 0.225871
vt 0.028934 0.681861
vt 0.479196 0.248494
vt 0.373095 0.073396
vt 0.402248 0.084306
vt 0.834675 0.210430
vt 0.861811 0.183843
vt 0.572845 0.047131
vt 0.608415 0.034621
vt 0.475153 0.452913
vt 0.520709 0.426288
vt 0.056784 0.830045
vt 0.092419 0.875322
vt 0.252379 0.487417
vt 0.277190 0.495551
vt 0.535901 0.376228
vt 0.556341 0.383394
vt 0.249127 0.971028
vt 0.490525 0.293385
vt 0.139129 0.456864
vt 0.431933 0.223217
vt 0.385682 0.173190
vt 0.321888 0.110166
vt 0.275077 0.065340
vt 0.282624 0.623898
vt 0.336309 0.098829
vt 0.219705 0.032278
vt 0.417190 0.546224
vt 0.681487 0.730321
vt 0.910252 0.491681
vt 0.945069 0.524596
vt 0.748924 0.867669
vt 0.658366 0.653251
vt 0.866180 0.499019
vt 0.864951 0.482269
vt 0.893894 0.439320
vt 0.821527 0.961492
vt 0.948130 0.574807
vt 0.647996 0.638889
vt 0.818819 0.491818
vt 0.889317 0.387012
vt 0.653912 0.013999
vt 0.568199 0.013999
vt 0.124528 0.484605
vt 0.232748 0.670975
vt 0.291853 0.638988
vt 0.244737 0.516059
vt 0.153889 0.713544
vt 0.368844 0.594812
vt 0.294283 0.975255
vt 0.085225 0.772929
vt 0.424547 0.563211
vt 0.118339 0.865158
vt 0.083446 0.825108
vt 0.564977 0.368756
vt 0.574836 0.292012
vt 0.851441 0.469068
vt 0.808984 0.475059
vt 0.607108 0.144831
vt 0.877527 0.428902
vt 0.650110 0.032701
vt 0.871139 0.380803
vt 0.861141 0.162786
vt 0.885926 0.161523
vt 0.914583 0.255142
vt 0.142854 0.701358
vt 0.444240 0.211430
vt 0.737537 0.874835
vt 0.564098 0.291994
vt 0.803433 0.104291
vt 0.817453 0.089610
vt 0.810011 0.069706
vt 0.825682 0.076958
vt 0.849797 0.062425
vt 0.844115 0.071029
vt 0.907334 0.083429
vt 0.892729 0.099748
vt 0.888336 0.077824
vt 0.895212 0.070406
vt 0.924125 0.083137
vt 0.933408 0.114915
vt 0.019861 0.236287
vt 0.027850 0.326100
vt 0.290040 0.054051
vt 0.360265 0.578652
vt 0.399004 0.161417
vt 0.222267 0.657584
vt 0.503071 0.282881
vt 0.057247 0.773679
vt 0.319367 0.976688
vt 0.441163 0.978041
vt 0.052549 0.451693
vt 0.627012 0.696111
vt 0.272309 0.523236
vt 0.636284 0.671932
vt 0.317731 0.508851
vt 0.127838 0.038608
vt 0.491933 0.465630
vt 0.173037 0.013999
vt 0.225526 0.015994
vt 0.538892 0.437151
vt 0.829786 0.978742
vt 0.597421 0.140818
vt 0.669265 0.735471
vt 0.559549 0.385668
vt 0.921341 0.476079
vt 0.957514 0.509567
vt 0.872285 0.480166
vt 0.964462 0.563670
vt 0.220569 0.585516
vt 0.056472 0.665575
vt 0.061836 0.497843
vt 0.522289 0.255359
vt 0.035546 0.475107
vn -0.460972 -0.143903 0.875670
vn -0.473693 -0.794845 0.379258
vn 0.700917 -0.703073 0.120011
vn 0.782172 0.152731 0.604054
vn -0.684722 0.723590 -0.087019
vn 0.474712 0.855407 -0.207192
vn -0.785087 -0.063825 -0.616089
vn 0.425925 0.068551 -0.902158
vn -0.292420 0.886443 -0.358761
vn -0.623277 -0.734722 -0.267787
vn -0.496423 -0.737551 0.457802
vn -0.168302 0.892456 0.418564
vn 0.474295 0.737388 -0.480940
vn 0.496796 0.824079 0.272191
vn 0.199763 -0.918717 -0.340667
vn 0.340855 -0.892440 0.295583
vn -0.622528 0.776748 -0.095502
vn -0.739324 -0.113684 -0.663683
vn -0.648877 -0.740427 0.175289
vn -0.439766 0.180552 0.879776
vn 0.630771 0.759706 -0.158032
vn 0.637813 0.214902 0.739602
vn 0.506953 -0.175868 -0.843842
vn 0.602796 -0.797819 -0.011082
vn 0.394701 0.917540 -0.048278
vn 0.282502 0.000000 -0.959267
vn 0.145993 0.000000 -0.989286
vn -0.350323 0.915812 -0.196372
vn -0.110531 0.855595 0.505708
vn -0.384920 0.887795 0.252302
vn -0.059216 0.998217 0.007521
vn -0.982539 0.010556 -0.185759
vn -0.919533 -0.017852 0.392608
vn 0.140505 0.975789 -0.167612
vn -0.596427 0.034197 -0.801938
vn 0.262172 0.958812 -0.109292
vn -0.103937 -0.001128 -0.994583
vn -0.292980 0.954585 -0.054141
vn 0.427694 0.074980 -0.900809
vn 0.111304 -0.028674 -0.993373
vn -0.311793 0.948333 -0.058740
vn -0.252807 0.967341 -0.018425
vn 0.841052 0.011107 -0.540840
vn -0.065339 0.997473 -0.027916
vn 0.992068 -0.019529 -0.124179
vn -0.867890 -0.003391 0.496746
vn -0.316085 0.895158 0.314298
vn -0.016118 0.984232 0.176144
vn 0.999634 0.027066 -0.000090
vn -0.002373 0.986741 0.162285
vn -0.044522 0.997774 -0.049654
vn 0.219094 0.972789 -0.075359
vn 0.113780 0.989495 0.089188
vn -0.071485 0.997440 -0.002135
vn -0.074936 0.997073 -0.015200
vn 0.692477 -0.043265 0.720142
vn 0.999415 0.023544 0.024802
vn 0.006634 0.999064 -0.042748
vn 0.143182 -0.050473 0.988409
vn 0.050883 0.997072 -0.057085
vn -0.677268 0.036306 0.734840
vn -0.036718 0.990598 -0.131786
vn -0.249985 0.966184 -0.063214
vn 0.057837 0.989342 -0.133634
vn 0.022854 0.986919 -0.159588
vn -0.847823 -0.016790 0.530014
vn 0.969836 -0.018625 -0.243046
vn 0.352629 -0.935499 0.022254
vn -0.340947 -0.933158 -0.113890
vn -0.137196 -0.764667 0.629651
vn -0.305390 -0.947295 0.096790
vn -0.218463 -0.973729 -0.064223
vn -0.221458 -0.966979 -0.126124
vn 0.370623 -0.922128 -0.110988
vn 0.396302 -0.915743 -0.066028
vn 0.581079 -0.813069 -0.035574
vn -0.240859 -0.966410 0.089654
vn -0.265466 -0.963617 -0.031151
vn 0.645975 -0.693270 0.319520
vn 0.085543 -0.986641 0.138643
vn -0.234424 -0.965553 0.112931
vn -0.221547 -0.975047 -0.014159
vn 0.044293 -0.998277 -0.038488
vn 0.401271 -0.915799 -0.017166
vn 0.119417 -0.991648 0.048718
vn -0.005858 -0.994452 0.105028
vn -0.330655 -0.896958 0.293485
vn -0.360515 -0.906862 0.218243
vn -0.053917 -0.997057 0.054491
vn 0.154510 -0.987670 -0.025175
vn 0.450059 -0.886671 -0.106124
vn -0.206131 0.969236 0.134508
vn 0.410040 -0.902206 0.133759
vn -0.000180 -0.020210 -0.999796
vn -0.216819 0.975303 -0.042120
vn -0.123509 0.987869 0.094129
vn 0.217344 -0.975065 -0.044842
vn 0.325967 -0.943051 -0.066333
vn 0.267611 -0.960185 0.080186
vn -0.015457 -0.024325 -0.999585
vn -0.006435 -0.036856 -0.999300
vn 0.231564 0.971929 0.041619
vn -0.317330 -0.940481 0.121643
vn -0.749334 0.013078 -0.662063
vn -0.752729 0.015818 -0.658141
s 1
g pCube16
usemtl lambert6SG
f 3/111/1 1/112/2 2/3/3 4/2/4
f 5/6/5 3/5/1 4/115/4 6/116/6
f 7/113/7 5/6/5 6/116/6 8/114/8
f 2/3/3 1/112/2 7/113/7 8/114/8
f 6/1/6 4/2/4 2/3/3 8/4/8
f 3/5/1 5/6/5 7/7/7 1/8/2
s 2
f 11/9/9 9/10/10 10/11/11 12/12/12
f 13/14/13 11/9/9 12/12/12 14/15/14
f 15/13/15 13/14/13 14/15/14 16/16/16
f 10/11/11 9/10/10 15/47/15 16/48/16
f 14/104/14 12/105/12 10/11/11 16/48/16
f 11/9/9 13/14/13 15/13/15 9/106/10
s 3
f 19/17/17 17/18/18 18/19/19 20/20/20
f 21/117/21 19/118/17 20/119/20 22/120/22
f 23/21/23 21/22/21 22/23/22 24/24/24
f 18/19/19 17/18/18 23/121/23 24/24/24
f 22/23/22 20/122/20 18/19/19 24/24/24
f 19/118/17 21/117/21 23/121/23 17/18/18
s 4
f 27/49/25 28/50/26 26/154/27 25/42/28
f 29/46/29 27/49/25 25/42/28
s 5
f 32/51/30 31/52/31 34/142/32 33/139/33
f 31/52/31 30/57/34 35/58/35 34/142/32
f 35/58/35 30/57/34 87/60/36 91/129/37
f 38/68/38 39/141/39 95/125/40 98/65/41
f 38/68/38 37/31/42 40/140/43 39/141/39
f 37/31/42 36/32/44 41/138/45 40/140/43
f 32/51/30 33/139/33 44/137/46 45/56/47
f 41/138/45 36/32/44 42/35/48 43/33/49
f 46/40/50 93/63/51 82/62/52 83/61/53
s 8
f 47/79/54 50/72/55 54/148/56 51/150/57
f 50/72/55 49/71/58 53/147/59 54/148/56
f 49/71/58 48/75/60 52/149/61 53/147/59
f 100/70/62 49/71/58 50/72/55 101/73/63
f 56/78/64 101/73/63 50/72/55 47/79/54
f 57/74/65 58/80/66 52/149/61 48/75/60
f 55/143/67 56/78/64 47/79/54 51/150/57
s 4
f 60/153/68 59/152/69 26/43/27 28/155/26
f 60/153/68 61/151/70 59/152/69
s 5
f 64/94/71 33/54/33 34/53/32 63/95/72
f 63/95/72 34/53/32 35/130/35 62/92/73
f 67/29/74 39/30/39 40/26/43 66/25/75
f 66/25/75 40/26/43 41/27/45 65/28/76
f 64/94/71 69/91/77 44/59/46 33/54/33
f 35/130/35 91/107/37 89/89/78 62/92/73
f 41/27/45 43/136/49 68/134/79 65/28/76
f 70/41/80 85/132/81 84/86/82 94/87/83
s 8
f 71/103/84 51/82/57 54/77/56 74/101/85
f 74/101/85 54/77/56 53/76/59 73/98/86
f 73/98/86 53/76/59 52/81/61 72/99/87
f 76/96/88 105/97/89 73/98/86 72/99/87
f 104/100/90 74/101/85 73/98/86 105/97/89
f 76/96/88 72/99/87 52/81/61 58/146/66
f 55/83/67 51/82/57 71/103/84 75/102/91
s 5
f 69/135/77 45/56/47 44/137/46
f 68/34/79 42/35/48 96/36/92 97/123/93
f 43/33/49 42/35/48 68/34/79
f 70/133/80 46/40/50 83/61/53 85/85/81
s 4
f 25/42/28 26/154/27 59/44/69
f 29/46/29 61/45/70 60/84/68 27/49/25
f 25/42/28 59/44/69 61/45/70 29/46/29
f 27/49/25 60/84/68 28/50/26
s 5
f 78/67/94 77/64/95 98/65/41 95/125/40
f 77/64/95 79/38/96 96/36/92 98/65/41
f 80/90/97 78/126/94 95/69/40 99/93/98
f 81/39/99 80/90/97 99/93/98 97/37/93
f 81/124/99 79/38/96 46/40/50 70/133/80
f 86/108/100 82/62/52 93/63/51 92/127/101
f 83/61/53 82/62/52 87/60/36 88/55/102
f 84/86/82 86/128/100 92/66/101 94/87/83
f 84/86/82 85/132/81 90/131/103 89/89/78
f 85/85/81 83/61/53 88/55/102 90/88/103
f 91/129/37 87/60/36 82/62/52 86/108/100
f 89/89/78 91/107/37 86/128/100 84/86/82
f 88/55/102 87/60/36 30/57/34
f 62/92/73 69/91/77 64/94/71 63/95/72
f 90/88/103 88/55/102 45/56/47 69/135/77
f 93/63/51 46/40/50 79/38/96 77/64/95
f 70/41/80 94/87/83 80/90/97 81/39/99
f 92/127/101 93/63/51 77/64/95 78/67/94
f 94/87/83 92/66/101 78/126/94 80/90/97
f 97/123/93 96/36/92 79/38/96 81/124/99
f 37/31/42 96/36/92 42/35/48 36/32/44
f 67/29/74 99/93/98 95/69/40 39/30/39
f 97/37/93 99/93/98 67/29/74 66/25/75
f 98/65/41 96/36/92 37/31/42 38/68/38
f 88/55/102 30/57/34 31/52/31
f 90/131/103 69/91/77 62/92/73 89/89/78
f 97/37/93 66/25/75 65/28/76
f 97/37/93 65/28/76 68/134/79
f 88/55/102 31/52/31 32/51/30 45/56/47
s 8
f 100/70/62 57/74/65 48/75/60 49/71/58
f 104/100/90 75/102/91 71/103/84 74/101/85
f 100/70/62 101/73/63 102/109/104 103/145/105
f 103/110/105 102/144/104 104/100/90 105/97/89
f 100/70/62 103/145/105 58/80/66 57/74/65
f 102/109/104 101/73/63 56/78/64 55/143/67
f 102/144/104 55/83/67 75/102/91 104/100/90
f 58/146/66 103/110/105 105/97/89 76/96/88
